<svg width="500" height="500" viewBox="0 0 500 500" fill="none" xmlns="http://www.w3.org/2000/svg">
<g filter="url(#filter0_d_1_19)">
<path d="M136.17 215.848C133.636 215.848 131.576 213.92 130.78 211.515C129.382 207.291 126.688 203.869 122.695 201.249C117.417 197.785 110.942 196.053 103.271 196.053C97.6627 196.053 92.7551 196.96 88.5486 198.775C84.3834 200.589 81.1254 203.084 78.7747 206.26C76.4653 209.435 75.3106 213.044 75.3106 217.085C75.3106 220.467 76.1148 223.374 77.7231 225.808C79.3727 228.2 81.476 230.2 84.0329 231.808C86.5897 233.375 89.2703 234.674 92.0747 235.705C94.879 236.695 97.4565 237.499 99.8072 238.118L112.674 241.582C115.973 242.448 119.644 243.644 123.685 245.17C127.768 246.696 131.665 248.778 135.377 251.418C139.13 254.016 142.223 257.356 144.656 261.439C147.089 265.522 148.305 270.532 148.305 276.471C148.305 283.317 146.512 289.503 142.924 295.029C139.377 300.555 134.181 304.947 127.335 308.205C120.53 311.463 112.262 313.092 102.529 313.092C93.4562 313.092 85.6 311.628 78.9603 308.7C72.3619 305.772 67.1657 301.689 63.3716 296.452C60.6105 292.598 58.7312 288.287 57.7337 283.519C57.1395 280.679 59.4682 278.203 62.3699 278.203H68.2487C70.8436 278.203 72.9343 280.216 73.6471 282.712C74.4536 285.534 75.7916 287.991 77.6613 290.08C80.5068 293.173 84.0947 295.483 88.4249 297.009C92.7964 298.493 97.4977 299.235 102.529 299.235C108.385 299.235 113.643 298.287 118.303 296.39C122.963 294.452 126.654 291.771 129.376 288.348C132.098 284.884 133.459 280.842 133.459 276.224C133.459 272.017 132.284 268.594 129.933 265.955C127.582 263.315 124.489 261.171 120.654 259.521C116.819 257.872 112.674 256.428 108.22 255.191L92.6314 250.737C82.7338 247.892 74.8982 243.829 69.1246 238.551C63.351 233.272 60.4642 226.364 60.4642 217.828C60.4642 210.734 62.3818 204.548 66.2172 199.27C70.0937 193.95 75.29 189.826 81.8059 186.898C88.3631 183.928 95.6832 182.444 103.766 182.444C111.932 182.444 119.19 183.908 125.541 186.836C131.892 189.723 136.923 193.682 140.635 198.713C143.354 202.359 145.142 206.361 146 210.722C146.544 213.493 144.234 215.848 141.409 215.848H136.17Z" fill="white"/>
</g>
<g filter="url(#filter1_d_1_19)">
<path d="M250.251 225.065C250.251 223.09 250.595 221.131 251.267 219.275L262.701 187.712C263.464 185.606 266.582 186.153 266.582 188.393V313.092C266.582 317.602 262.926 321.258 258.416 321.258V321.258C253.907 321.258 250.251 317.602 250.251 313.092L250.251 225.065Z" fill="white"/>
</g>
<g filter="url(#filter2_d_1_19)">
<path d="M160.526 182.444C163.565 182.444 166.258 184.405 167.189 187.299L203.01 298.59C203.145 299.011 203.537 299.297 203.98 299.297V299.297C204.422 299.297 204.814 299.011 204.949 298.59L240.77 187.299C241.701 184.405 244.394 182.444 247.433 182.444H248.688C253.471 182.444 256.845 187.133 255.325 191.668L213.498 316.482C212.542 319.335 209.87 321.258 206.861 321.258H201.098C198.089 321.258 195.417 319.335 194.461 316.482L152.634 191.668C151.114 187.133 154.488 182.444 159.271 182.444H160.526Z" fill="white"/>
</g>
<g filter="url(#filter3_d_1_19)">
<path d="M272.026 197.414C272.026 193.656 275.072 190.609 278.83 190.609H314.214C317.972 190.609 321.019 193.656 321.019 197.414V197.414C321.019 201.172 317.972 204.218 314.214 204.218H278.83C275.072 204.218 272.026 201.172 272.026 197.414V197.414Z" fill="white"/>
</g>
<g filter="url(#filter4_d_1_19)">
<path d="M274.747 262.738C274.747 258.98 277.794 255.933 281.552 255.933H297.883C301.641 255.933 304.688 258.98 304.688 262.738V262.738C304.688 266.496 301.641 269.543 297.883 269.543H281.552C277.794 269.543 274.747 266.496 274.747 262.738V262.738Z" fill="white"/>
</g>
<g filter="url(#filter5_d_1_19)">
<path d="M326.746 195.609C326.746 192.848 328.984 190.609 331.746 190.609H358.688C366.074 190.609 372.136 192.353 376.875 195.84C381.615 199.285 385.123 204.027 387.4 210.066C389.677 216.105 390.816 222.974 390.816 230.671C390.816 238.369 389.677 245.195 387.4 251.149C385.123 257.103 381.63 261.781 376.922 265.183C372.213 268.543 366.197 270.223 358.873 270.223H320.575C317.814 270.223 315.575 267.985 315.575 265.223L315.575 260.933C315.575 258.172 317.814 255.933 320.575 255.933H358.504C363.551 255.933 367.613 254.913 370.69 252.871C373.798 250.83 376.045 247.938 377.429 244.196C378.845 240.41 379.553 235.902 379.553 230.671C379.553 225.44 378.845 220.868 377.429 216.956C376.014 213.043 373.752 210.024 370.644 207.897C368.067 206.099 343.102 205.046 331.73 204.739C328.97 204.664 326.746 202.405 326.746 199.644V195.609ZM371.244 262.568L391.796 314.415C393.097 317.697 390.679 321.258 387.148 321.258H384.631C382.571 321.258 380.722 319.994 379.973 318.075L358.319 262.568H371.244Z" fill="white"/>
</g>
<g filter="url(#filter6_d_1_19)">
<path d="M402.323 322C401.219 322 400.323 321.105 400.323 320V317.041C400.323 316.644 400.441 316.257 400.662 315.927L432.385 268.573C433.275 267.244 432.322 265.46 430.723 265.46H401.952C400.848 265.46 399.952 264.564 399.952 263.46V260.655C399.952 259.551 400.848 258.655 401.952 258.655H441.625C442.73 258.655 443.625 259.551 443.625 260.655V263.615C443.625 264.011 443.508 264.399 443.287 264.728L411.564 312.082C410.674 313.411 411.626 315.195 413.226 315.195H441.997C443.101 315.195 443.997 316.091 443.997 317.195V320C443.997 321.105 443.101 322 441.997 322H402.323Z" fill="white"/>
</g>
<g filter="url(#filter7_d_1_19)">
<path d="M57 383C57 380.791 58.7909 379 61 379H114C116.209 379 118 380.791 118 383V383C118 385.209 116.209 387 114 387H61C58.7909 387 57 385.209 57 383V383Z" fill="white"/>
</g>
<g filter="url(#filter8_d_1_19)">
<path d="M383 383C383 380.791 384.791 379 387 379H440C442.209 379 444 380.791 444 383V383C444 385.209 442.209 387 440 387H387C384.791 387 383 385.209 383 383V383Z" fill="white"/>
</g>
<g filter="url(#filter9_d_1_19)">
<path d="M146.872 399.192C144.632 399.192 142.552 398.856 140.632 398.184C138.744 397.48 137.272 396.6 136.216 395.544C135.736 395.032 135.528 394.456 135.592 393.816C135.688 393.144 136.008 392.6 136.552 392.184C137.192 391.672 137.816 391.464 138.424 391.56C139.064 391.624 139.608 391.896 140.056 392.376C140.6 392.984 141.464 393.56 142.648 394.104C143.864 394.616 145.208 394.872 146.68 394.872C148.536 394.872 149.944 394.568 150.904 393.96C151.896 393.352 152.408 392.568 152.44 391.608C152.472 390.648 152.008 389.816 151.048 389.112C150.12 388.408 148.408 387.832 145.912 387.384C142.68 386.744 140.328 385.784 138.856 384.504C137.416 383.224 136.696 381.656 136.696 379.8C136.696 378.168 137.176 376.824 138.136 375.768C139.096 374.68 140.328 373.88 141.832 373.368C143.336 372.824 144.904 372.552 146.536 372.552C148.648 372.552 150.52 372.888 152.152 373.56C153.784 374.232 155.08 375.16 156.04 376.344C156.488 376.856 156.696 377.4 156.664 377.976C156.632 378.52 156.36 378.984 155.848 379.368C155.336 379.72 154.728 379.832 154.024 379.704C153.32 379.576 152.728 379.288 152.248 378.84C151.448 378.072 150.584 377.544 149.656 377.256C148.728 376.968 147.656 376.824 146.44 376.824C145.032 376.824 143.832 377.064 142.84 377.544C141.88 378.024 141.4 378.728 141.4 379.656C141.4 380.232 141.544 380.76 141.832 381.24C142.152 381.688 142.76 382.104 143.656 382.488C144.552 382.84 145.864 383.192 147.592 383.544C149.992 384.024 151.88 384.632 153.256 385.368C154.664 386.104 155.672 386.968 156.28 387.96C156.888 388.92 157.192 390.04 157.192 391.32C157.192 392.792 156.792 394.12 155.992 395.304C155.224 396.488 154.072 397.432 152.536 398.136C151.032 398.84 149.144 399.192 146.872 399.192ZM211.909 399.048C211.205 399.048 210.613 398.824 210.133 398.376C209.685 397.896 209.461 397.304 209.461 396.6V382.872C209.461 380.856 208.965 379.368 207.973 378.408C206.981 377.416 205.685 376.92 204.085 376.92C202.421 376.92 201.045 377.496 199.957 378.648C198.901 379.8 198.373 381.272 198.373 383.064H194.389C194.389 380.984 194.837 379.16 195.733 377.592C196.629 375.992 197.877 374.744 199.477 373.848C201.109 372.952 202.965 372.504 205.045 372.504C206.869 372.504 208.485 372.904 209.893 373.704C211.301 374.504 212.389 375.688 213.157 377.256C213.957 378.792 214.357 380.664 214.357 382.872V396.6C214.357 397.304 214.133 397.896 213.685 398.376C213.237 398.824 212.645 399.048 211.909 399.048ZM179.893 399.048C179.189 399.048 178.597 398.824 178.117 398.376C177.669 397.896 177.445 397.304 177.445 396.6V375.24C177.445 374.504 177.669 373.912 178.117 373.464C178.597 373.016 179.189 372.792 179.893 372.792C180.629 372.792 181.221 373.016 181.669 373.464C182.117 373.912 182.341 374.504 182.341 375.24V396.6C182.341 397.304 182.117 397.896 181.669 398.376C181.221 398.824 180.629 399.048 179.893 399.048ZM195.925 399.048C195.221 399.048 194.629 398.824 194.149 398.376C193.701 397.896 193.477 397.304 193.477 396.6V382.872C193.477 380.856 192.981 379.368 191.989 378.408C190.997 377.416 189.701 376.92 188.101 376.92C186.437 376.92 185.061 377.496 183.973 378.648C182.885 379.8 182.341 381.272 182.341 383.064H179.317C179.317 380.984 179.733 379.16 180.565 377.592C181.397 375.992 182.549 374.744 184.021 373.848C185.493 372.952 187.173 372.504 189.061 372.504C190.885 372.504 192.501 372.904 193.909 373.704C195.317 374.504 196.405 375.688 197.173 377.256C197.973 378.792 198.373 380.664 198.373 382.872V396.6C198.373 397.304 198.149 397.896 197.701 398.376C197.253 398.824 196.661 399.048 195.925 399.048ZM245.434 398.952C244.442 398.952 243.674 398.424 243.13 397.368L232.954 375.912C232.698 375.368 232.666 374.84 232.858 374.328C233.082 373.784 233.498 373.368 234.106 373.08C234.65 372.792 235.194 372.744 235.738 372.936C236.314 373.128 236.746 373.496 237.034 374.04L246.538 394.536H244.234L253.642 374.04C253.93 373.496 254.362 373.128 254.938 372.936C255.546 372.744 256.154 372.792 256.762 373.08C257.338 373.336 257.722 373.736 257.914 374.28C258.106 374.824 258.074 375.368 257.818 375.912L247.642 397.368C247.162 398.424 246.426 398.952 245.434 398.952ZM279.746 399C279.138 399 278.594 398.776 278.114 398.328C277.634 397.88 277.394 397.288 277.394 396.552V372.888C277.394 370.584 277.842 368.584 278.738 366.888C279.666 365.192 280.946 363.88 282.578 362.952C284.21 361.992 286.098 361.512 288.242 361.512C288.946 361.512 289.522 361.72 289.97 362.136C290.45 362.552 290.69 363.08 290.69 363.72C290.69 364.328 290.45 364.856 289.97 365.304C289.522 365.72 288.946 365.928 288.242 365.928C287.058 365.928 286.018 366.2 285.122 366.744C284.226 367.288 283.522 368.04 283.01 369C282.53 369.96 282.29 371.096 282.29 372.408V396.552C282.29 397.288 282.066 397.88 281.618 398.328C281.17 398.776 280.546 399 279.746 399ZM275.33 377.832C274.658 377.832 274.114 377.64 273.698 377.256C273.282 376.872 273.074 376.392 273.074 375.816C273.074 375.176 273.282 374.664 273.698 374.28C274.114 373.896 274.658 373.704 275.33 373.704H287.186C287.858 373.704 288.402 373.896 288.818 374.28C289.234 374.664 289.442 375.176 289.442 375.816C289.442 376.392 289.234 376.872 288.818 377.256C288.402 377.64 287.858 377.832 287.186 377.832H275.33ZM310.953 382.584C310.953 380.664 311.417 378.952 312.345 377.448C313.305 375.912 314.585 374.696 316.185 373.8C317.785 372.904 319.545 372.456 321.465 372.456C323.385 372.456 324.809 372.776 325.737 373.416C326.697 374.024 327.065 374.76 326.841 375.624C326.745 376.072 326.553 376.424 326.265 376.68C326.009 376.904 325.705 377.048 325.353 377.112C325.001 377.176 324.617 377.16 324.201 377.064C322.153 376.648 320.313 376.616 318.681 376.968C317.049 377.32 315.753 377.976 314.793 378.936C313.865 379.896 313.401 381.112 313.401 382.584H310.953ZM311.001 399C310.233 399 309.641 398.808 309.225 398.424C308.809 398.008 308.601 397.4 308.601 396.6V375.144C308.601 374.376 308.809 373.784 309.225 373.368C309.641 372.952 310.233 372.744 311.001 372.744C311.801 372.744 312.393 372.952 312.777 373.368C313.193 373.752 313.401 374.344 313.401 375.144V396.6C313.401 397.368 313.193 397.96 312.777 398.376C312.393 398.792 311.801 399 311.001 399ZM348.504 398.088L345.24 395.208L361.56 373.656L364.776 376.536L348.504 398.088ZM347.064 399C345.56 399 344.808 398.248 344.808 396.744C344.808 395.24 345.56 394.488 347.064 394.488H363.432C364.936 394.488 365.688 395.24 365.688 396.744C365.688 398.248 364.936 399 363.432 399H347.064ZM346.584 377.256C345.08 377.256 344.328 376.504 344.328 375C344.328 373.496 345.08 372.744 346.584 372.744H362.952C364.456 372.744 365.208 373.496 365.208 375C365.208 376.504 364.456 377.256 362.952 377.256H346.584Z" fill="white"/>
</g>
<defs>
<filter id="filter0_d_1_19" x="53.6404" y="182.444" width="98.665" height="138.648" filterUnits="userSpaceOnUse" color-interpolation-filters="sRGB">
<feFlood flood-opacity="0" result="BackgroundImageFix"/>
<feColorMatrix in="SourceAlpha" type="matrix" values="0 0 0 0 0 0 0 0 0 0 0 0 0 0 0 0 0 0 127 0" result="hardAlpha"/>
<feOffset dy="4"/>
<feGaussianBlur stdDeviation="2"/>
<feComposite in2="hardAlpha" operator="out"/>
<feColorMatrix type="matrix" values="0 0 0 0 0 0 0 0 0 0 0 0 0 0 0 0 0 0 0.25 0"/>
<feBlend mode="normal" in2="BackgroundImageFix" result="effect1_dropShadow_1_19"/>
<feBlend mode="normal" in="SourceGraphic" in2="effect1_dropShadow_1_19" result="shape"/>
</filter>
<filter id="filter1_d_1_19" x="246.251" y="186.391" width="24.3311" height="142.867" filterUnits="userSpaceOnUse" color-interpolation-filters="sRGB">
<feFlood flood-opacity="0" result="BackgroundImageFix"/>
<feColorMatrix in="SourceAlpha" type="matrix" values="0 0 0 0 0 0 0 0 0 0 0 0 0 0 0 0 0 0 127 0" result="hardAlpha"/>
<feOffset dy="4"/>
<feGaussianBlur stdDeviation="2"/>
<feComposite in2="hardAlpha" operator="out"/>
<feColorMatrix type="matrix" values="0 0 0 0 0 0 0 0 0 0 0 0 0 0 0 0 0 0 0.25 0"/>
<feBlend mode="normal" in2="BackgroundImageFix" result="effect1_dropShadow_1_19"/>
<feBlend mode="normal" in="SourceGraphic" in2="effect1_dropShadow_1_19" result="shape"/>
</filter>
<filter id="filter2_d_1_19" x="148.266" y="182.444" width="111.428" height="146.814" filterUnits="userSpaceOnUse" color-interpolation-filters="sRGB">
<feFlood flood-opacity="0" result="BackgroundImageFix"/>
<feColorMatrix in="SourceAlpha" type="matrix" values="0 0 0 0 0 0 0 0 0 0 0 0 0 0 0 0 0 0 127 0" result="hardAlpha"/>
<feOffset dy="4"/>
<feGaussianBlur stdDeviation="2"/>
<feComposite in2="hardAlpha" operator="out"/>
<feColorMatrix type="matrix" values="0 0 0 0 0 0 0 0 0 0 0 0 0 0 0 0 0 0 0.25 0"/>
<feBlend mode="normal" in2="BackgroundImageFix" result="effect1_dropShadow_1_19"/>
<feBlend mode="normal" in="SourceGraphic" in2="effect1_dropShadow_1_19" result="shape"/>
</filter>
<filter id="filter3_d_1_19" x="268.026" y="190.609" width="56.9932" height="21.6092" filterUnits="userSpaceOnUse" color-interpolation-filters="sRGB">
<feFlood flood-opacity="0" result="BackgroundImageFix"/>
<feColorMatrix in="SourceAlpha" type="matrix" values="0 0 0 0 0 0 0 0 0 0 0 0 0 0 0 0 0 0 127 0" result="hardAlpha"/>
<feOffset dy="4"/>
<feGaussianBlur stdDeviation="2"/>
<feComposite in2="hardAlpha" operator="out"/>
<feColorMatrix type="matrix" values="0 0 0 0 0 0 0 0 0 0 0 0 0 0 0 0 0 0 0.25 0"/>
<feBlend mode="normal" in2="BackgroundImageFix" result="effect1_dropShadow_1_19"/>
<feBlend mode="normal" in="SourceGraphic" in2="effect1_dropShadow_1_19" result="shape"/>
</filter>
<filter id="filter4_d_1_19" x="270.747" y="255.933" width="37.9403" height="21.6092" filterUnits="userSpaceOnUse" color-interpolation-filters="sRGB">
<feFlood flood-opacity="0" result="BackgroundImageFix"/>
<feColorMatrix in="SourceAlpha" type="matrix" values="0 0 0 0 0 0 0 0 0 0 0 0 0 0 0 0 0 0 127 0" result="hardAlpha"/>
<feOffset dy="4"/>
<feGaussianBlur stdDeviation="2"/>
<feComposite in2="hardAlpha" operator="out"/>
<feColorMatrix type="matrix" values="0 0 0 0 0 0 0 0 0 0 0 0 0 0 0 0 0 0 0.25 0"/>
<feBlend mode="normal" in2="BackgroundImageFix" result="effect1_dropShadow_1_19"/>
<feBlend mode="normal" in="SourceGraphic" in2="effect1_dropShadow_1_19" result="shape"/>
</filter>
<filter id="filter5_d_1_19" x="311.575" y="190.609" width="84.5778" height="138.648" filterUnits="userSpaceOnUse" color-interpolation-filters="sRGB">
<feFlood flood-opacity="0" result="BackgroundImageFix"/>
<feColorMatrix in="SourceAlpha" type="matrix" values="0 0 0 0 0 0 0 0 0 0 0 0 0 0 0 0 0 0 127 0" result="hardAlpha"/>
<feOffset dy="4"/>
<feGaussianBlur stdDeviation="2"/>
<feComposite in2="hardAlpha" operator="out"/>
<feColorMatrix type="matrix" values="0 0 0 0 0 0 0 0 0 0 0 0 0 0 0 0 0 0 0.25 0"/>
<feBlend mode="normal" in2="BackgroundImageFix" result="effect1_dropShadow_1_19"/>
<feBlend mode="normal" in="SourceGraphic" in2="effect1_dropShadow_1_19" result="shape"/>
</filter>
<filter id="filter6_d_1_19" x="395.952" y="258.655" width="52.0444" height="71.3447" filterUnits="userSpaceOnUse" color-interpolation-filters="sRGB">
<feFlood flood-opacity="0" result="BackgroundImageFix"/>
<feColorMatrix in="SourceAlpha" type="matrix" values="0 0 0 0 0 0 0 0 0 0 0 0 0 0 0 0 0 0 127 0" result="hardAlpha"/>
<feOffset dy="4"/>
<feGaussianBlur stdDeviation="2"/>
<feComposite in2="hardAlpha" operator="out"/>
<feColorMatrix type="matrix" values="0 0 0 0 0 0 0 0 0 0 0 0 0 0 0 0 0 0 0.25 0"/>
<feBlend mode="normal" in2="BackgroundImageFix" result="effect1_dropShadow_1_19"/>
<feBlend mode="normal" in="SourceGraphic" in2="effect1_dropShadow_1_19" result="shape"/>
</filter>
<filter id="filter7_d_1_19" x="53" y="379" width="69" height="16" filterUnits="userSpaceOnUse" color-interpolation-filters="sRGB">
<feFlood flood-opacity="0" result="BackgroundImageFix"/>
<feColorMatrix in="SourceAlpha" type="matrix" values="0 0 0 0 0 0 0 0 0 0 0 0 0 0 0 0 0 0 127 0" result="hardAlpha"/>
<feOffset dy="4"/>
<feGaussianBlur stdDeviation="2"/>
<feComposite in2="hardAlpha" operator="out"/>
<feColorMatrix type="matrix" values="0 0 0 0 0 0 0 0 0 0 0 0 0 0 0 0 0 0 0.25 0"/>
<feBlend mode="normal" in2="BackgroundImageFix" result="effect1_dropShadow_1_19"/>
<feBlend mode="normal" in="SourceGraphic" in2="effect1_dropShadow_1_19" result="shape"/>
</filter>
<filter id="filter8_d_1_19" x="379" y="379" width="69" height="16" filterUnits="userSpaceOnUse" color-interpolation-filters="sRGB">
<feFlood flood-opacity="0" result="BackgroundImageFix"/>
<feColorMatrix in="SourceAlpha" type="matrix" values="0 0 0 0 0 0 0 0 0 0 0 0 0 0 0 0 0 0 127 0" result="hardAlpha"/>
<feOffset dy="4"/>
<feGaussianBlur stdDeviation="2"/>
<feComposite in2="hardAlpha" operator="out"/>
<feColorMatrix type="matrix" values="0 0 0 0 0 0 0 0 0 0 0 0 0 0 0 0 0 0 0.25 0"/>
<feBlend mode="normal" in2="BackgroundImageFix" result="effect1_dropShadow_1_19"/>
<feBlend mode="normal" in="SourceGraphic" in2="effect1_dropShadow_1_19" result="shape"/>
</filter>
<filter id="filter9_d_1_19" x="131.496" y="361.512" width="238.191" height="45.68" filterUnits="userSpaceOnUse" color-interpolation-filters="sRGB">
<feFlood flood-opacity="0" result="BackgroundImageFix"/>
<feColorMatrix in="SourceAlpha" type="matrix" values="0 0 0 0 0 0 0 0 0 0 0 0 0 0 0 0 0 0 127 0" result="hardAlpha"/>
<feOffset dy="4"/>
<feGaussianBlur stdDeviation="2"/>
<feComposite in2="hardAlpha" operator="out"/>
<feColorMatrix type="matrix" values="0 0 0 0 0 0 0 0 0 0 0 0 0 0 0 0 0 0 0.25 0"/>
<feBlend mode="normal" in2="BackgroundImageFix" result="effect1_dropShadow_1_19"/>
<feBlend mode="normal" in="SourceGraphic" in2="effect1_dropShadow_1_19" result="shape"/>
</filter>
</defs>
</svg>
