<svg width="239" height="47" viewBox="0 0 239 47" fill="none" xmlns="http://www.w3.org/2000/svg">
<g filter="url(#filter0_d_1_125)">
<path d="M15.872 38.192C13.632 38.192 11.552 37.856 9.632 37.184C7.744 36.48 6.272 35.6 5.216 34.544C4.736 34.032 4.528 33.456 4.592 32.816C4.688 32.144 5.008 31.6 5.552 31.184C6.192 30.672 6.816 30.464 7.424 30.56C8.064 30.624 8.608 30.896 9.056 31.376C9.6 31.984 10.464 32.56 11.648 33.104C12.864 33.616 14.208 33.872 15.68 33.872C17.536 33.872 18.944 33.568 19.904 32.96C20.896 32.352 21.408 31.568 21.44 30.608C21.472 29.648 21.008 28.816 20.048 28.112C19.12 27.408 17.408 26.832 14.912 26.384C11.68 25.744 9.328 24.784 7.856 23.504C6.416 22.224 5.696 20.656 5.696 18.8C5.696 17.168 6.176 15.824 7.136 14.768C8.096 13.68 9.328 12.88 10.832 12.368C12.336 11.824 13.904 11.552 15.536 11.552C17.648 11.552 19.52 11.888 21.152 12.56C22.784 13.232 24.08 14.16 25.04 15.344C25.488 15.856 25.696 16.4 25.664 16.976C25.632 17.52 25.36 17.984 24.848 18.368C24.336 18.72 23.728 18.832 23.024 18.704C22.32 18.576 21.728 18.288 21.248 17.84C20.448 17.072 19.584 16.544 18.656 16.256C17.728 15.968 16.656 15.824 15.44 15.824C14.032 15.824 12.832 16.064 11.84 16.544C10.88 17.024 10.4 17.728 10.4 18.656C10.4 19.232 10.544 19.76 10.832 20.24C11.152 20.688 11.76 21.104 12.656 21.488C13.552 21.84 14.864 22.192 16.592 22.544C18.992 23.024 20.88 23.632 22.256 24.368C23.664 25.104 24.672 25.968 25.28 26.96C25.888 27.92 26.192 29.04 26.192 30.32C26.192 31.792 25.792 33.12 24.992 34.304C24.224 35.488 23.072 36.432 21.536 37.136C20.032 37.84 18.144 38.192 15.872 38.192ZM80.909 38.048C80.205 38.048 79.613 37.824 79.133 37.376C78.685 36.896 78.461 36.304 78.461 35.6V21.872C78.461 19.856 77.965 18.368 76.973 17.408C75.981 16.416 74.685 15.92 73.085 15.92C71.421 15.92 70.045 16.496 68.957 17.648C67.901 18.8 67.373 20.272 67.373 22.064H63.389C63.389 19.984 63.837 18.16 64.733 16.592C65.629 14.992 66.877 13.744 68.477 12.848C70.109 11.952 71.965 11.504 74.045 11.504C75.869 11.504 77.485 11.904 78.893 12.704C80.301 13.504 81.389 14.688 82.157 16.256C82.957 17.792 83.357 19.664 83.357 21.872V35.6C83.357 36.304 83.133 36.896 82.685 37.376C82.237 37.824 81.645 38.048 80.909 38.048ZM48.893 38.048C48.189 38.048 47.597 37.824 47.117 37.376C46.669 36.896 46.445 36.304 46.445 35.6V14.24C46.445 13.504 46.669 12.912 47.117 12.464C47.597 12.016 48.189 11.792 48.893 11.792C49.629 11.792 50.221 12.016 50.669 12.464C51.117 12.912 51.341 13.504 51.341 14.24V35.6C51.341 36.304 51.117 36.896 50.669 37.376C50.221 37.824 49.629 38.048 48.893 38.048ZM64.925 38.048C64.221 38.048 63.629 37.824 63.149 37.376C62.701 36.896 62.477 36.304 62.477 35.6V21.872C62.477 19.856 61.981 18.368 60.989 17.408C59.997 16.416 58.701 15.92 57.101 15.92C55.437 15.92 54.061 16.496 52.973 17.648C51.885 18.8 51.341 20.272 51.341 22.064H48.317C48.317 19.984 48.733 18.16 49.565 16.592C50.397 14.992 51.549 13.744 53.021 12.848C54.493 11.952 56.173 11.504 58.061 11.504C59.885 11.504 61.501 11.904 62.909 12.704C64.317 13.504 65.405 14.688 66.173 16.256C66.973 17.792 67.373 19.664 67.373 21.872V35.6C67.373 36.304 67.149 36.896 66.701 37.376C66.253 37.824 65.661 38.048 64.925 38.048ZM114.434 37.952C113.442 37.952 112.674 37.424 112.13 36.368L101.954 14.912C101.698 14.368 101.666 13.84 101.858 13.328C102.082 12.784 102.498 12.368 103.106 12.08C103.65 11.792 104.194 11.744 104.738 11.936C105.314 12.128 105.746 12.496 106.034 13.04L115.538 33.536H113.234L122.642 13.04C122.93 12.496 123.362 12.128 123.938 11.936C124.546 11.744 125.154 11.792 125.762 12.08C126.338 12.336 126.722 12.736 126.914 13.28C127.106 13.824 127.074 14.368 126.818 14.912L116.642 36.368C116.162 37.424 115.426 37.952 114.434 37.952ZM148.746 38C148.138 38 147.594 37.776 147.114 37.328C146.634 36.88 146.394 36.288 146.394 35.552V11.888C146.394 9.584 146.842 7.584 147.738 5.888C148.666 4.192 149.946 2.88 151.578 1.952C153.21 0.991999 155.098 0.511999 157.242 0.511999C157.946 0.511999 158.522 0.719999 158.97 1.136C159.45 1.552 159.69 2.08 159.69 2.72C159.69 3.328 159.45 3.856 158.97 4.304C158.522 4.72 157.946 4.928 157.242 4.928C156.058 4.928 155.018 5.2 154.122 5.744C153.226 6.288 152.522 7.04 152.01 8C151.53 8.96 151.29 10.096 151.29 11.408V35.552C151.29 36.288 151.066 36.88 150.618 37.328C150.17 37.776 149.546 38 148.746 38ZM144.33 16.832C143.658 16.832 143.114 16.64 142.698 16.256C142.282 15.872 142.074 15.392 142.074 14.816C142.074 14.176 142.282 13.664 142.698 13.28C143.114 12.896 143.658 12.704 144.33 12.704H156.186C156.858 12.704 157.402 12.896 157.818 13.28C158.234 13.664 158.442 14.176 158.442 14.816C158.442 15.392 158.234 15.872 157.818 16.256C157.402 16.64 156.858 16.832 156.186 16.832H144.33ZM179.953 21.584C179.953 19.664 180.417 17.952 181.345 16.448C182.305 14.912 183.585 13.696 185.185 12.8C186.785 11.904 188.545 11.456 190.465 11.456C192.385 11.456 193.809 11.776 194.737 12.416C195.697 13.024 196.065 13.76 195.841 14.624C195.745 15.072 195.553 15.424 195.265 15.68C195.009 15.904 194.705 16.048 194.353 16.112C194.001 16.176 193.617 16.16 193.201 16.064C191.153 15.648 189.313 15.616 187.681 15.968C186.049 16.32 184.753 16.976 183.793 17.936C182.865 18.896 182.401 20.112 182.401 21.584H179.953ZM180.001 38C179.233 38 178.641 37.808 178.225 37.424C177.809 37.008 177.601 36.4 177.601 35.6V14.144C177.601 13.376 177.809 12.784 178.225 12.368C178.641 11.952 179.233 11.744 180.001 11.744C180.801 11.744 181.393 11.952 181.777 12.368C182.193 12.752 182.401 13.344 182.401 14.144V35.6C182.401 36.368 182.193 36.96 181.777 37.376C181.393 37.792 180.801 38 180.001 38ZM217.504 37.088L214.24 34.208L230.56 12.656L233.776 15.536L217.504 37.088ZM216.064 38C214.56 38 213.808 37.248 213.808 35.744C213.808 34.24 214.56 33.488 216.064 33.488H232.432C233.936 33.488 234.688 34.24 234.688 35.744C234.688 37.248 233.936 38 232.432 38H216.064ZM215.584 16.256C214.08 16.256 213.328 15.504 213.328 14C213.328 12.496 214.08 11.744 215.584 11.744H231.952C233.456 11.744 234.208 12.496 234.208 14C234.208 15.504 233.456 16.256 231.952 16.256H215.584Z" fill="white"/>
</g>
<defs>
<filter id="filter0_d_1_125" x="0.496002" y="0.512001" width="238.191" height="45.68" filterUnits="userSpaceOnUse" color-interpolation-filters="sRGB">
<feFlood flood-opacity="0" result="BackgroundImageFix"/>
<feColorMatrix in="SourceAlpha" type="matrix" values="0 0 0 0 0 0 0 0 0 0 0 0 0 0 0 0 0 0 127 0" result="hardAlpha"/>
<feOffset dy="4"/>
<feGaussianBlur stdDeviation="2"/>
<feComposite in2="hardAlpha" operator="out"/>
<feColorMatrix type="matrix" values="0 0 0 0 0 0 0 0 0 0 0 0 0 0 0 0 0 0 0.25 0"/>
<feBlend mode="normal" in2="BackgroundImageFix" result="effect1_dropShadow_1_125"/>
<feBlend mode="normal" in="SourceGraphic" in2="effect1_dropShadow_1_125" result="shape"/>
</filter>
</defs>
</svg>
